<svg id="a55afbe8-fde3-4f32-bad6-eebf465cb6e8" data-name="Calque 1" xmlns="http://www.w3.org/2000/svg" viewBox="0 0 86.17 52.04"><path d="M92.55,34.15,51.26,75.49a1.79,1.79,0,0,1-2.53,0L7.44,34.15a1.79,1.79,0,0,1,0-2.53l7.11-7.13a1.85,1.85,0,0,1,2.55,0L50,57.43,82.89,24.49a1.85,1.85,0,0,1,2.55,0l7.12,7.13A1.78,1.78,0,0,1,92.55,34.15Z" transform="translate(-6.91 -23.98)" style="fill:#fff"/><path d="M92.56,31.62l-7.12-7.13a1.85,1.85,0,0,0-2.55,0L50,57.43,17.1,24.49a1.85,1.85,0,0,0-2.55,0L7.44,31.62a1.79,1.79,0,0,0,0,2.53L48.73,75.49a1.79,1.79,0,0,0,2.53,0L92.55,34.15A1.78,1.78,0,0,0,92.56,31.62ZM50,71.69,11.24,32.89l4.58-4.59L48.73,61.24a1.85,1.85,0,0,0,2.55,0L84.18,28.3l4.58,4.59Z" transform="translate(-6.91 -23.98)" style="fill:#010101"/></svg>